<?xml version="1.0" encoding="UTF-8"?>
<svg id="Layer_2" xmlns="http://www.w3.org/2000/svg" viewBox="0 0 134.21 162.51"><defs><style>.cls-1{fill:#091c68;}</style></defs><g id="Layer_1-2"><g><path class="cls-1" d="M88.74,79.94c-23.6,18.47-48.51,29.52-65.77,30.52,15.96-3.94,35.64-13.96,54.49-28.72,15.42-12.07,27.69-25.28,35.58-37.45-.74-3.03-1.75-5.96-3.01-8.75-6.08,11-17.07,23.49-31.45,34.74-19.08,14.94-39.23,23.87-53.19,24.68,12.91-3.19,28.83-11.29,44.07-23.22,18.95-14.84,32.02-31.81,35.7-44.7-9.17-12.94-24.26-21.39-41.32-21.39C35.88,5.65,13.21,28.32,13.21,56.29c0,3.49,.35,6.89,1.02,10.18C5.69,71.74,0,81.18,0,91.95c0,16.54,13.41,29.94,29.94,29.94,11.32,0,21.17-6.28,26.26-15.55,2.49,.38,5.05,.58,7.65,.58,27.97,0,50.64-22.67,50.64-50.64,0-.24-.01-.48-.02-.73-7.02,8.21-15.71,16.53-25.73,24.38ZM112.56,10.34c-3.11-3.63-8.51-5.09-15.36-4.63-2.71,.18-5.64,.67-8.75,1.43,6.68-.39,11.94,1.09,14.99,4.65,3.1,3.62,3.53,8.94,1.73,15.24,1.88,2.66,3.52,5.5,4.87,8.5,5.85-10.58,7.16-19.79,2.52-25.19Zm18.19-4.52C126.9,1.34,120.22-.47,111.75,.1c-3.35,.23-6.98,.82-10.82,1.77,8.25-.48,14.76,1.34,18.54,5.75,6.52,7.6,3.54,21.3-6.43,36.66,.88,3.62,1.37,7.39,1.42,11.27,17.43-20.37,24.61-40.02,16.28-49.73Z"/><g><path class="cls-1" d="M21.79,135.36c1.44,.22,2.63,.52,3.59,.9l-2.62,7.22h-.66c-1.29-.68-2.41-1.17-3.36-1.48-.96-.3-2.02-.45-3.2-.45-1.34,0-2.43,.25-3.28,.76-.85,.51-1.51,1.47-1.99,2.89-.48,1.42-.72,3.47-.72,6.15,0,1.89,.34,3.19,1.03,3.92,.68,.72,1.84,1.09,3.49,1.09,.38,0,.87-.05,1.48-.16l.16-1.35,.41-4.55,7.54-.53-.57,3.69-.9,7.26c-3.25,1.2-6.33,1.8-9.22,1.8-3.85,0-6.81-.97-8.88-2.91-2.06-1.94-3.09-4.66-3.09-8.16,0-5.27,1.41-9.33,4.24-12.16s6.91-4.24,12.24-4.24c1.45,0,2.89,.11,4.33,.33Z"/><path class="cls-1" d="M53.01,162.01h-8.69l-1.31-9.59h-.45l-3.53,9.59h-8.73l-2.95-26.53h7.95l-.08,4.1,.86,14.19h.45l4.55-12.14-.66-6.15h8.32l-.04,4.96,1.15,13.32h.45l4.92-13.69,1.31-4.59h7.54l-11.07,26.53Z"/><path class="cls-1" d="M84.73,137.88c1.95,1.93,2.93,4.86,2.93,8.79,0,3.06-.57,5.79-1.7,8.18-1.13,2.39-2.79,4.26-4.98,5.62s-4.81,2.03-7.87,2.03c-3.58,0-6.35-.98-8.32-2.93-1.97-1.95-2.95-4.91-2.95-8.88,0-3.06,.57-5.77,1.7-8.14,1.13-2.36,2.8-4.22,5-5.56s4.83-2.01,7.89-2.01c3.58,0,6.35,.96,8.3,2.89Zm-11.97,4.37c-.72,.49-1.3,1.41-1.72,2.77s-.64,3.29-.64,5.8c0,1.48,.1,2.61,.29,3.4,.19,.79,.54,1.37,1.05,1.72,.5,.36,1.25,.53,2.23,.53,1.07,0,1.97-.25,2.71-.74s1.32-1.41,1.74-2.77,.64-3.29,.64-5.8c0-1.45-.1-2.58-.29-3.38-.19-.81-.54-1.39-1.05-1.74-.51-.35-1.25-.53-2.23-.53-1.09,0-2,.25-2.73,.74Z"/><path class="cls-1" d="M109.76,136.43l-2.05,6.64-1.15,.49c-1.07-.71-2.14-1.27-3.22-1.68-1.08-.41-1.96-.62-2.64-.62s-1.22,.14-1.62,.43c-.4,.29-.59,.64-.59,1.05,0,.52,.27,.96,.8,1.33,.53,.37,1.39,.83,2.56,1.37,1.34,.63,2.45,1.22,3.34,1.78,.89,.56,1.66,1.31,2.32,2.25,.66,.94,.98,2.08,.98,3.42,0,1.72-.51,3.32-1.54,4.8-1.03,1.48-2.46,2.64-4.31,3.51-1.84,.86-3.94,1.29-6.29,1.29-2.82,0-5.7-.52-8.65-1.56l1.97-7.09,.86-.49c1.17,.98,2.45,1.75,3.81,2.3,1.37,.55,2.54,.82,3.53,.82,.79,0,1.37-.14,1.72-.43,.36-.29,.53-.64,.53-1.05,0-.55-.28-1.02-.84-1.41-.56-.4-1.43-.87-2.6-1.41-1.34-.63-2.43-1.22-3.28-1.76-.85-.55-1.59-1.28-2.21-2.21-.63-.93-.94-2.06-.94-3.4,0-1.8,.52-3.46,1.56-4.96,1.04-1.5,2.47-2.69,4.29-3.55,1.82-.86,3.85-1.29,6.09-1.29,2.62,0,5.15,.48,7.58,1.44Z"/><path class="cls-1" d="M129.36,135.32c1.2,.19,2.28,.46,3.24,.82l-2.17,6.52-.57,.29c-.66-.38-1.43-.69-2.34-.92-.9-.23-1.75-.35-2.54-.35-2.08,0-3.55,.66-4.41,1.97-.86,1.31-1.29,3.4-1.29,6.27,0,2,.36,3.46,1.09,4.39,.72,.93,1.85,1.39,3.38,1.39,.77,0,1.63-.08,2.6-.23,.97-.15,1.84-.36,2.6-.64l.57,.37-1.43,6.48c-.96,.3-1.85,.51-2.69,.62-.83,.11-1.74,.16-2.73,.16-3.94,0-6.95-.97-9.04-2.91-2.09-1.94-3.14-4.71-3.14-8.32,0-5.08,1.32-9.05,3.96-11.91,2.64-2.86,6.39-4.28,11.25-4.28,1.23,0,2.45,.1,3.65,.29Z"/></g></g></g></svg>